<svg width="20" height="20" viewBox="0 0 20 20" fill="none" xmlns="http://www.w3.org/2000/svg">
<path fill-rule="evenodd" clip-rule="evenodd" d="M9.49937 0.191573C9.78428 -0.0638577 10.2158 -0.0638577 10.5007 0.191573L19.7507 8.48468C19.9821 8.69215 20.0616 9.02086 19.9505 9.31113C19.8394 9.60141 19.5608 9.7931 19.25 9.7931H18.7257V18.5H19.25C19.6642 18.5 20 18.8358 20 19.25C20 19.6642 19.6642 20 19.25 20H0.750032C0.335818 20 3.16107e-05 19.6642 3.16107e-05 19.25C3.16107e-05 18.8358 0.335818 18.5 0.750032 18.5H1.27738V9.7931H0.750032C0.439231 9.7931 0.160632 9.60141 0.0495602 9.31113C-0.0615114 9.02086 0.0179603 8.69215 0.249373 8.48468L9.49937 0.191573ZM2.77738 18.5H6.38082V9.7931H2.77738V18.5ZM7.88082 18.5H12.1222V9.7931H7.88082V18.5ZM13.6222 18.5H17.2257V9.7931H13.6222V18.5ZM2.71009 8.2931H17.29L10 1.75729L2.71009 8.2931Z" fill="#1E1E1E"/>
</svg>
