<svg width="657" height="715" viewBox="0 0 657 715" fill="none" xmlns="http://www.w3.org/2000/svg">
<path d="M30.764 713.65C41.797 713.65 50.364 709.24 55.686 703.13L51.014 698.72C46.6 703.91 39.071 707.16 31.283 707.16C16.875 707.16 7.01 696.77 7.01 681.46C7.01 666.4 16.745 655.76 31.283 655.76C39.591 655.76 46.47 659.26 50.624 664.32L55.557 659.91C49.456 652.9 40.11 649.4 31.023 649.4C12.721 649.4 0 662.64 0 681.59C0 700.41 12.591 713.65 30.764 713.65ZM70.324 713H77.204V682.11C77.204 667.18 85.381 656.79 98.232 656.79C99.4 656.79 100.828 656.92 102.256 657.05V649.4H98.881C89.146 649.4 81.617 654.72 77.463 663.41H77.204V650.04H70.324V713ZM166.17 679.9C166.17 662.38 154.747 649.4 137.872 649.4C120.479 649.4 107.368 662.77 107.368 681.46C107.368 700.28 120.219 713.65 138.392 713.65C150.204 713.65 158.382 708.98 163.704 701.84L158.771 697.68C154.358 703.39 147.608 707.16 138.522 707.16C124.762 707.16 115.027 697.42 114.378 683.02H166.04C166.17 682.63 166.17 681.33 166.17 679.9ZM137.872 655.76C150.074 655.76 157.992 664.45 159.29 677.3H114.637C116.325 664.32 125.801 655.76 137.872 655.76ZM208.745 713.65C220.298 713.65 229.254 707.55 233.538 698.59H233.798V713H240.418V617.46H233.668V664.45H233.408C228.735 654.98 219.389 649.4 208.745 649.4C190.443 649.4 177.722 663.67 177.722 681.98C177.722 701.06 191.481 713.65 208.745 713.65ZM209.524 707.16C194.596 707.16 184.731 696.13 184.731 682.11C184.731 666.14 195.765 655.76 209.524 655.76C223.932 655.76 233.798 667.44 233.798 682.11C233.798 697.16 222.894 707.16 209.524 707.16ZM265.135 636.41C268.38 636.41 270.847 633.82 270.847 630.7C270.847 627.46 268.38 625.12 265.135 625.12C261.89 625.12 259.424 627.46 259.424 630.7C259.424 633.82 261.89 636.41 265.135 636.41ZM261.501 713H268.38V650.04H261.501V713ZM306.502 713.65C313.122 713.65 317.925 711.44 320.91 709.63L319.093 703.39C316.497 705.08 312.213 707.03 307.28 707.03C299.622 707.03 298.064 702.1 298.064 693.4V656.15H321.04V650.04H298.064V627.07L291.185 627.85V650.04H282.877V656.15H291.185V695.22C291.185 706.77 294.949 713.65 306.502 713.65ZM370.158 714.17C387.811 714.17 400.662 701.06 400.662 681.46C400.662 662.25 387.811 648.62 370.677 648.62C362.889 648.62 356.269 651.34 351.466 656.79H351.336V617.46H334.332V713H350.428V705.34L350.687 705.21C355.23 711.05 361.591 714.17 370.158 714.17ZM367.172 698.85C357.826 698.85 350.557 691.97 350.557 681.59C350.557 671.33 357.307 663.8 367.043 663.8C376.129 663.8 383.398 670.68 383.398 681.59C383.398 691.71 376.648 698.85 367.172 698.85ZM414.844 713H431.849V617.46H414.844V713ZM476.169 714.17C484.477 714.17 490.837 711.05 495.251 705.34L495.51 705.47V713H511.736V649.53H494.731V656.79L494.472 656.92C489.929 651.47 483.179 648.62 475.78 648.62C458.775 648.62 445.925 662.25 445.925 681.46C445.925 701.06 458.775 714.17 476.169 714.17ZM479.414 698.85C469.809 698.85 463.189 691.71 463.189 681.59C463.189 670.68 470.198 663.8 479.414 663.8C488.501 663.8 495.51 671.33 495.51 681.59C495.51 691.97 488.111 698.85 479.414 698.85ZM557.105 714.17C570.605 714.17 579.302 709.37 584.753 702.62L573.72 691.97C570.345 696.13 565.283 698.85 558.792 698.85C548.667 698.85 541.658 691.84 541.658 681.33C541.658 670.94 548.538 663.8 558.792 663.8C564.763 663.8 569.956 666.4 573.33 670.55L584.494 660.04C577.874 652.25 567.489 648.62 557.624 648.62C538.023 648.62 524.394 661.86 524.394 681.46C524.394 700.93 538.153 714.17 557.105 714.17ZM596.477 713H613.352V695.74L621.919 686.39L637.626 713H656.707L633.991 674.97L656.188 649.53H636.198L613.612 676.14H613.352V617.46H596.477V713Z" fill="#262626"/>
<path d="M428.557 455.912C462.601 455.912 490.199 428.314 490.199 394.27C490.199 360.226 462.601 332.628 428.557 332.628C394.513 332.628 366.915 360.226 366.915 394.27C366.915 428.314 394.513 455.912 428.557 455.912Z" fill="#624AA7"/>
<path fill-rule="evenodd" clip-rule="evenodd" d="M318.731 525.7C463.9 525.7 581.582 408.02 581.582 262.85C581.582 117.68 463.9 0 318.731 0C173.563 0 55.8809 117.68 55.8809 262.85C55.8809 408.02 173.563 525.7 318.731 525.7ZM318.731 458.09C210.904 458.09 123.493 370.68 123.493 262.85C123.493 155.02 210.904 67.61 318.731 67.61C426.558 67.61 513.97 155.02 513.97 262.85C513.97 294.17 506.596 323.76 493.491 349.99C502.107 362.6 507.146 377.85 507.146 394.28C507.146 437.68 471.96 472.86 428.557 472.86C407.094 472.86 387.641 464.26 373.458 450.31C356.094 455.38 337.729 458.09 318.731 458.09Z" fill="#262626"/>
</svg>
