<svg width="24" height="24" viewBox="0 0 24 24" fill="none" xmlns="http://www.w3.org/2000/svg">
<path d="M6.5 6.53125C8.02083 5.01042 9.85417 4.25 12 4.25C14.1458 4.25 15.9688 5.01042 17.4688 6.53125C18.9896 8.03125 19.75 9.85417 19.75 12C19.75 14.1458 18.9896 15.9792 17.4688 17.5C15.9688 19 14.1458 19.75 12 19.75C9.85417 19.75 8.02083 19 6.5 17.5C5 15.9792 4.25 14.1458 4.25 12C4.25 9.85417 5 8.03125 6.5 6.53125ZM15.8125 14.0312L13.75 12L15.8125 9.96875C15.9792 9.78125 15.9792 9.60417 15.8125 9.4375L14.5625 8.1875C14.3958 8.02083 14.2188 8.02083 14.0312 8.1875L12 10.25L9.96875 8.1875C9.78125 8.02083 9.60417 8.02083 9.4375 8.1875L8.1875 9.4375C8.02083 9.60417 8.02083 9.78125 8.1875 9.96875L10.25 12L8.1875 14.0312C8.02083 14.2188 8.02083 14.3958 8.1875 14.5625L9.4375 15.8125C9.60417 15.9792 9.78125 15.9792 9.96875 15.8125L12 13.75L14.0312 15.8125C14.2188 15.9792 14.3958 15.9792 14.5625 15.8125L15.8125 14.5625C15.9792 14.3958 15.9792 14.2188 15.8125 14.0312Z" fill="#EB5757"/>
</svg>
