<svg xmlns="http://www.w3.org/2000/svg"  viewBox="0 0 72 72" width="64px" height="64px"><path d="M 36 4 C 35.051 4 34.157797 4.4489375 33.591797 5.2109375 L 15.863281 29.101562 C 15.355281 29.787562 15.161031 30.655234 15.332031 31.490234 C 15.504031 32.326234 16.023766 33.050469 16.759766 33.480469 L 34.933594 44.091797 C 35.401594 44.364797 35.925266 44.5 36.447266 44.5 C 36.992266 44.5 37.536578 44.352641 38.017578 44.056641 L 55.296875 33.445312 C 56.014875 33.005313 56.514828 32.284984 56.673828 31.458984 C 56.833828 30.632984 56.637719 29.777562 56.136719 29.101562 L 38.408203 5.2128906 C 37.842203 4.4498906 36.949 4 36 4 z M 33 16.076172 L 33 21.857422 C 31.317995 22.508839 29.229535 23.325539 26.955078 24.222656 L 33 16.076172 z M 39 16.076172 L 45.042969 24.222656 C 42.769056 23.325825 40.681592 22.506575 39 21.855469 L 39 16.076172 z M 33 28.171875 L 33 36.013672 L 25.064453 31.380859 L 33 28.171875 z M 39 28.171875 L 47.091797 31.443359 L 39 36.412109 L 39 28.171875 z M 53.332031 37.693359 C 52.824686 37.71235 52.318156 37.860656 51.863281 38.144531 L 36.048828 47.970703 L 20.128906 38.140625 C 18.914906 37.391625 17.335375 37.601484 16.359375 38.646484 C 15.384375 39.692484 15.282234 41.280406 16.115234 42.441406 L 33.5625 66.748047 C 34.1265 67.533047 35.033 68 36 68 C 36.967 68 37.8745 67.533047 38.4375 66.748047 L 55.884766 42.441406 C 56.718766 41.279406 56.614719 39.688578 55.636719 38.642578 C 55.025469 37.988828 54.177607 37.661709 53.332031 37.693359 z M 29.730469 51.121094 L 33 53.140625 L 33 55.675781 L 29.730469 51.121094 z M 42.207031 51.208984 L 39 55.675781 L 39 53.201172 L 42.207031 51.208984 z"/></svg>