<svg width="24" height="24" viewBox="0 0 24 24" fill="none" xmlns="http://www.w3.org/2000/svg">
<path d="M23.1328 11.9141C23.2109 12.0964 23.25 12.2917 23.25 12.5C23.25 12.7083 23.2109 12.9036 23.1328 13.0859C22.0391 15.1693 20.5026 16.849 18.5234 18.125C16.5443 19.375 14.3698 20 12 20C10.4375 20 8.92708 19.7135 7.46875 19.1406C6.03646 18.5417 4.76042 17.7344 3.64062 16.7188C2.52083 15.6771 1.59635 14.4661 0.867188 13.0859C0.789062 12.9036 0.75 12.7083 0.75 12.5C0.75 12.2917 0.789062 12.0964 0.867188 11.9141C1.96094 9.83073 3.4974 8.16406 5.47656 6.91406C7.45573 5.63802 9.63021 5 12 5C14.3698 5 16.5443 5.63802 18.5234 6.91406C20.5026 8.16406 22.0391 9.83073 23.1328 11.9141ZM12 18.125C13.5625 18.125 14.8906 17.5781 15.9844 16.4844C17.0781 15.3906 17.625 14.0625 17.625 12.5C17.625 10.9375 17.0781 9.60938 15.9844 8.51562C14.8906 7.42188 13.5625 6.875 12 6.875C10.4375 6.875 9.10938 7.42188 8.01562 8.51562C6.92188 9.60938 6.375 10.9375 6.375 12.5C6.375 14.0625 6.92188 15.3906 8.01562 16.4844C9.10938 17.5781 10.4375 18.125 12 18.125ZM12 8.75C13.0417 8.75 13.9271 9.11458 14.6562 9.84375C15.3854 10.5729 15.75 11.4583 15.75 12.5C15.75 13.5156 15.3854 14.401 14.6562 15.1562C13.9271 15.8854 13.0417 16.25 12 16.25C10.9844 16.25 10.099 15.8854 9.34375 15.1562C8.61458 14.401 8.25 13.5156 8.25 12.5C8.25 12.1615 8.30208 11.8359 8.40625 11.5234C8.71875 11.7578 9.08333 11.875 9.5 11.875C10.0208 11.875 10.4635 11.6927 10.8281 11.3281C11.1927 10.9635 11.375 10.5208 11.375 10C11.375 9.58333 11.2578 9.21875 11.0234 8.90625C11.3359 8.80208 11.6615 8.75 12 8.75Z" fill="#828282"/>
</svg>
