<svg width="60" height="60" viewBox="0 0 60 60" fill="none" xmlns="http://www.w3.org/2000/svg">
<rect x="1.39941" y="1.39966" width="57.2012" height="57.2012" rx="28.6006" fill="#FFEAEE"/>
<path fill-rule="evenodd" clip-rule="evenodd" d="M21.7387 20.4063C21.7387 18.041 23.6635 16.1162 26.0288 16.1162C27.1309 16.1162 28.1281 16.5449 28.8888 17.2306V17.2111L29.0005 17.3228C29.0387 17.3595 29.0755 17.3964 29.1123 17.4345L30.3188 18.6411L31.5254 17.4345C31.5622 17.3964 31.599 17.3595 31.6372 17.3228L31.7489 17.2111V17.2306C32.5096 16.5449 33.5068 16.1162 34.6089 16.1162C36.9742 16.1162 38.899 18.041 38.899 20.4063C38.899 20.9102 38.7969 21.3867 38.6365 21.8363H44.6191V30.4165H43.1891V40.5524C43.1891 42.0611 41.9634 43.2868 40.4547 43.2868H20.183C18.6743 43.2868 17.4486 42.0611 17.4486 40.5524V30.4165H16.0186V21.8363H22.0012C21.8408 21.3867 21.7387 20.9102 21.7387 20.4063ZM27.4588 20.4071C27.4588 19.6191 26.8181 18.9771 26.0287 18.9771C25.2393 18.9771 24.5987 19.6191 24.5987 20.4071C24.5987 21.195 25.2393 21.8371 26.0287 21.8371C26.8181 21.8371 27.4588 21.195 27.4588 20.4071ZM34.609 18.9771C35.3984 18.9771 36.0391 19.6191 36.0391 20.4071C36.0391 21.195 35.3984 21.8371 34.609 21.8371C33.8197 21.8371 33.179 21.195 33.179 20.4071C33.179 19.6191 33.8197 18.9771 34.609 18.9771ZM41.7589 24.6965H18.8785V27.5566H41.7589V24.6965ZM20.3087 30.4167H28.8889V40.427H20.3087V30.4167ZM40.329 30.4167H31.7488V40.427H40.329V30.4167Z" fill="#624AA7"/>
</svg>
