<svg width="36" height="36" viewBox="0 0 36 36" fill="none" xmlns="http://www.w3.org/2000/svg">
<rect width="36" height="36" rx="18" fill="#FF7D00"/>
<path fill-rule="evenodd" clip-rule="evenodd" d="M22.6828 17.6675C23.6529 17.1574 24.2598 16.2592 24.1181 14.7627C23.9271 12.7177 22.2162 12.0319 20.0565 11.8366L20.0561 9H18.3827L18.3822 11.762C17.9419 11.762 17.4931 11.771 17.0463 11.7802L17.046 9.00038L15.3741 9.00022L15.3738 11.8362C15.0114 11.8438 14.6556 11.8511 14.3081 11.8511V11.8427L12 11.8417L12.0003 13.6855C12.0003 13.6855 13.2361 13.6616 13.2157 13.6848C13.8933 13.6853 14.1145 14.0914 14.1781 14.4419L14.1787 17.6734V22.2127C14.1488 22.4327 14.0233 22.7842 13.5495 22.7848C13.5711 22.8044 12.3322 22.7846 12.3322 22.7846L12.0003 24.8464H14.1776C14.4438 24.8467 14.707 24.8496 14.967 24.8525H14.967L14.9672 24.8525C15.1033 24.854 15.2386 24.8555 15.373 24.8566L15.3745 27.7254L17.046 27.7259L17.0455 24.8872C17.5053 24.8969 17.9492 24.9011 18.3828 24.9005L18.3823 27.7259H20.0557L20.0566 24.8619C22.8694 24.6952 24.8386 23.9639 25.0834 21.2376C25.2807 19.0427 24.2798 18.063 22.6828 17.6675ZM17.0863 13.8095C17.1818 13.8095 17.298 13.8064 17.4298 13.8028C18.6003 13.7708 20.9982 13.7052 20.9986 15.5341C20.9982 17.3223 18.5048 17.2797 17.3616 17.2603C17.2577 17.2585 17.165 17.2569 17.0863 17.2569V13.8095ZM17.0863 18.9971L17.0855 22.7982C17.179 22.7981 17.289 22.7997 17.4121 22.8015C18.7824 22.8213 21.7776 22.8647 21.7772 20.8968C21.7768 18.8842 18.8964 18.9552 17.4934 18.9898C17.3374 18.9937 17.1997 18.9971 17.0863 18.9971Z" fill="white"/>
</svg>
