<svg width="37" height="37" viewBox="0 0 37 37" fill="none" xmlns="http://www.w3.org/2000/svg">
<rect y="0.227051" width="36.546" height="36.546" rx="18.273" fill="#F6F4E4"/>
<g clip-path="url(#clip0_1_930)">
<path d="M12.5 12.7583C14.0208 11.2375 15.8542 10.4771 18 10.4771C20.1459 10.4771 21.9687 11.2375 23.4687 12.7583C24.9896 14.2583 25.75 16.0812 25.75 18.2271C25.75 20.3729 24.9896 22.2063 23.4687 23.7271C21.9687 25.2271 20.1459 25.9771 18 25.9771C15.8542 25.9771 14.0208 25.2271 12.5 23.7271C11 22.2063 10.25 20.3729 10.25 18.2271C10.25 16.0812 11 14.2583 12.5 12.7583ZM13.5625 22.6645C14.7917 23.8729 16.2708 24.4771 18 24.4771C19.7292 24.4771 21.1979 23.8729 22.4063 22.6645C23.6354 21.4354 24.25 19.9563 24.25 18.2271C24.25 16.4979 23.6354 15.0291 22.4063 13.8208C21.1979 12.5916 19.7292 11.9771 18 11.9771C16.2708 11.9771 14.7917 12.5916 13.5625 13.8208C12.3542 15.0291 11.75 16.4979 11.75 18.2271C11.75 19.9563 12.3542 21.4354 13.5625 22.6645ZM19.9375 21.2271L17.2813 19.2896C17.1771 19.2063 17.125 19.1021 17.125 18.9771V13.8521C17.125 13.6021 17.25 13.4771 17.5 13.4771H18.5C18.75 13.4771 18.875 13.6021 18.875 13.8521V18.2896L20.9687 19.7896C21.1563 19.9354 21.1771 20.1125 21.0313 20.3208L20.4687 21.1333C20.3229 21.3417 20.1459 21.3729 19.9375 21.2271Z" fill="#DBD77B"/>
</g>
<defs>
<clipPath id="clip0_1_930">
<rect width="16" height="16" fill="white" transform="translate(10 10.2271)"/>
</clipPath>
</defs>
</svg>
