<svg width="81" height="89" viewBox="0 0 81 89" fill="none" xmlns="http://www.w3.org/2000/svg">
<path d="M3.79451 88.168C5.15535 88.168 6.21203 87.6231 6.86846 86.8683L6.2922 86.3235C5.74777 86.9647 4.81912 87.3662 3.85853 87.3662C2.08141 87.3662 0.864632 86.0825 0.864632 84.1911C0.864632 82.3305 2.06537 81.016 3.85853 81.016C4.88326 81.016 5.73173 81.4484 6.2441 82.0735L6.85255 81.5287C6.10004 80.6626 4.94728 80.2302 3.82646 80.2302C1.56904 80.2302 0 81.866 0 84.2071C0 86.5323 1.55301 88.168 3.79451 88.168ZM8.67395 88.0877H9.52255V84.2714C9.52255 82.4269 10.5311 81.1432 12.1162 81.1432C12.2603 81.1432 12.4364 81.1593 12.6125 81.1753V80.2302H12.1962C10.9955 80.2302 10.0669 80.8875 9.55449 81.9611H9.52255V80.3093H8.67395V88.0877ZM20.4959 83.9983C20.4959 81.8338 19.0869 80.2302 17.0055 80.2302C14.8602 80.2302 13.2431 81.882 13.2431 84.1911C13.2431 86.5162 14.8281 88.168 17.0696 88.168C18.5266 88.168 19.5353 87.591 20.1917 86.7089L19.5832 86.195C19.0389 86.9004 18.2064 87.3662 17.0857 87.3662C15.3885 87.3662 14.1877 86.1628 14.1077 84.3838H20.4798C20.4959 84.3356 20.4959 84.175 20.4959 83.9983ZM17.0055 81.016C18.5105 81.016 19.4872 82.0896 19.6473 83.6771H14.1396C14.3478 82.0735 15.5166 81.016 17.0055 81.016ZM25.7472 88.168C27.1721 88.168 28.2768 87.4144 28.8052 86.3074H28.8373V88.0877H29.6538V76.2842H28.8212V82.0896H28.7892C28.2128 80.9196 27.06 80.2302 25.7472 80.2302C23.4897 80.2302 21.9207 81.9932 21.9207 84.2553C21.9207 86.6125 23.6178 88.168 25.7472 88.168ZM25.8433 87.3662C24.002 87.3662 22.7852 86.0035 22.7852 84.2714C22.7852 82.2984 24.1462 81.016 25.8433 81.016C27.6204 81.016 28.8373 82.459 28.8373 84.2714C28.8373 86.1307 27.4923 87.3662 25.8433 87.3662ZM32.7025 78.6254C33.1027 78.6254 33.407 78.3054 33.407 77.9199C33.407 77.5196 33.1027 77.2306 32.7025 77.2306C32.3022 77.2306 31.9981 77.5196 31.9981 77.9199C31.9981 78.3054 32.3022 78.6254 32.7025 78.6254ZM32.2542 88.0877H33.1027V80.3093H32.2542V88.0877ZM37.8048 88.168C38.6213 88.168 39.2137 87.8949 39.5819 87.6713L39.3578 86.9004C39.0376 87.1092 38.5092 87.3501 37.9007 87.3501C36.9562 87.3501 36.764 86.741 36.764 85.6662V81.0641H39.5979V80.3093H36.764V77.4715L35.9155 77.5678V80.3093H34.8908V81.0641H35.9155V85.891C35.9155 87.318 36.3798 88.168 37.8048 88.168ZM45.6563 88.2322C47.8336 88.2322 49.4187 86.6125 49.4187 84.1911C49.4187 81.8178 47.8336 80.1339 45.7203 80.1339C44.7597 80.1339 43.9432 80.4699 43.3508 81.1432H43.3347V76.2842H41.2374V88.0877H43.2227V87.1413L43.2547 87.1253C43.815 87.8468 44.5996 88.2322 45.6563 88.2322ZM45.288 86.3395C44.1352 86.3395 43.2386 85.4895 43.2386 84.2071C43.2386 82.9396 44.0712 82.0093 45.2721 82.0093C46.3928 82.0093 47.2893 82.8593 47.2893 84.2071C47.2893 85.4574 46.4568 86.3395 45.288 86.3395ZM51.168 88.0877H53.2654V76.2842H51.168V88.0877ZM58.732 88.2322C59.7567 88.2322 60.5411 87.8468 61.0856 87.1413L61.1175 87.1574V88.0877H63.1189V80.2463H61.0215V81.1432L60.9895 81.1593C60.4292 80.4859 59.5966 80.1339 58.684 80.1339C56.5865 80.1339 55.0016 81.8178 55.0016 84.1911C55.0016 86.6125 56.5865 88.2322 58.732 88.2322ZM59.1322 86.3395C57.9475 86.3395 57.131 85.4574 57.131 84.2071C57.131 82.8593 57.9955 82.0093 59.1322 82.0093C60.253 82.0093 61.1175 82.9396 61.1175 84.2071C61.1175 85.4895 60.2049 86.3395 59.1322 86.3395ZM68.7148 88.2322C70.38 88.2322 71.4527 87.6392 72.125 86.8053L70.7642 85.4895C70.3479 86.0035 69.7235 86.3395 68.9229 86.3395C67.6741 86.3395 66.8096 85.4735 66.8096 84.175C66.8096 82.8914 67.6581 82.0093 68.9229 82.0093C69.6594 82.0093 70.2999 82.3305 70.7161 82.8432L72.0931 81.5447C71.2765 80.5823 69.9956 80.1339 68.7788 80.1339C66.3612 80.1339 64.6802 81.7696 64.6802 84.1911C64.6802 86.5965 66.3772 88.2322 68.7148 88.2322ZM73.5711 88.0877H75.6525V85.9553L76.7092 84.8001L78.6465 88.0877H81L78.1982 83.3893L80.936 80.2463H78.4704L75.6846 83.5338H75.6525V76.2842H73.5711V88.0877Z" fill="#262626"/>
<path d="M52.8594 56.3256C57.0585 56.3256 60.4625 52.916 60.4625 48.71C60.4625 44.5041 57.0585 41.0945 52.8594 41.0945C48.6604 41.0945 45.2563 44.5041 45.2563 48.71C45.2563 52.916 48.6604 56.3256 52.8594 56.3256Z" fill="#624AA7"/>
<path fill-rule="evenodd" clip-rule="evenodd" d="M39.3132 64.9476C57.2187 64.9476 71.7339 50.4088 71.7339 32.4738C71.7339 14.5388 57.2187 0 39.3132 0C21.4078 0 6.89258 14.5388 6.89258 32.4738C6.89258 50.4088 21.4078 64.9476 39.3132 64.9476ZM39.3132 56.5947C26.0135 56.5947 15.232 45.7957 15.232 32.4738C15.232 19.152 26.0135 8.35288 39.3132 8.35288C52.6129 8.35288 63.3945 19.152 63.3945 32.4738C63.3945 36.3433 62.485 39.9989 60.8686 43.2395C61.9313 44.7974 62.5528 46.6815 62.5528 48.7113C62.5528 54.0732 58.2129 58.4195 52.8594 58.4195C50.2121 58.4195 47.8127 57.357 46.0634 55.6336C43.9216 56.2599 41.6565 56.5947 39.3132 56.5947Z" fill="#262626"/>
</svg>
