<svg width="166" height="40" viewBox="0 0 166 40" fill="none" xmlns="http://www.w3.org/2000/svg">
<path d="M28.3573 34.6907C30.9476 34.6907 33.0475 32.5908 33.0475 30.0004C33.0475 27.4101 30.9476 25.3102 28.3573 25.3102C25.7669 25.3102 23.667 27.4101 23.667 30.0004C23.667 32.5908 25.7669 34.6907 28.3573 34.6907Z" fill="#624AA7"/>
<path fill-rule="evenodd" clip-rule="evenodd" d="M20.0002 40.0005C31.046 40.0005 40.0005 31.0461 40.0005 20.0003C40.0005 8.95446 31.046 0 20.0002 0C8.95444 0 0 8.95446 0 20.0003C0 31.0461 8.95444 40.0005 20.0002 40.0005ZM20.0002 34.8553C11.7961 34.8553 5.14519 28.2044 5.14519 20.0003C5.14519 11.7961 11.7961 5.14521 20.0002 5.14521C28.2044 5.14521 34.8553 11.7961 34.8553 20.0003C34.8553 22.3836 34.2951 24.6345 33.297 26.6308C33.9522 27.5899 34.3359 28.751 34.3359 30.0004C34.3359 33.3021 31.6589 35.9791 28.3572 35.9791C26.7241 35.9791 25.2439 35.3255 24.1643 34.2646C22.8436 34.6482 21.4448 34.8553 20.0002 34.8553Z" fill="#262626"/>
<path d="M59.1811 28.0907C61.0551 28.0907 62.5082 27.3421 63.413 26.3066L62.6186 25.5563C61.8699 26.439 60.5917 26.989 59.2693 26.989C56.8232 26.989 55.1494 25.227 55.1494 22.6264C55.1494 20.0699 56.8028 18.2638 59.2693 18.2638C60.68 18.2638 61.8479 18.8579 62.5524 19.7185L63.3909 18.9682C62.3554 17.7782 60.7683 17.1841 59.2252 17.1841C56.1187 17.1841 53.9595 19.4316 53.9595 22.6484C53.9595 25.8432 56.0967 28.0907 59.1811 28.0907ZM65.8965 27.9804H67.0644V22.7367C67.0644 20.2023 68.4529 18.4403 70.6343 18.4403C70.8329 18.4403 71.0756 18.4623 71.3184 18.4844V17.1841H70.7446C69.0929 17.1841 67.8147 18.0872 67.1085 19.564H67.0644V17.2944H65.8965V27.9804ZM82.1673 22.3616C82.1673 19.3875 80.2287 17.1841 77.3633 17.1841C74.4113 17.1841 72.1858 19.4537 72.1858 22.6264C72.1858 25.8211 74.3671 28.0907 77.4515 28.0907C79.4563 28.0907 80.8449 27.298 81.748 26.0859L80.9111 25.3815C80.1625 26.3508 79.0167 26.989 77.4736 26.989C75.1378 26.989 73.4861 25.3373 73.3758 22.8912H82.1452C82.1673 22.825 82.1673 22.6043 82.1673 22.3616ZM77.3633 18.2638C79.4342 18.2638 80.7787 19.7406 80.9994 21.9219H73.4199C73.7068 19.7185 75.3144 18.2638 77.3633 18.2638ZM89.3953 28.0907C91.356 28.0907 92.8752 27.0552 93.6035 25.5359H93.6476V27.9804H94.7714V11.7639H93.6256V19.7406H93.5814C92.7887 18.1313 91.2015 17.1841 89.3953 17.1841C86.2872 17.1841 84.1279 19.6082 84.1279 22.7147C84.1279 25.9535 86.4637 28.0907 89.3953 28.0907ZM89.526 26.989C86.9933 26.989 85.3179 25.1166 85.3179 22.7367C85.3179 20.0258 87.1903 18.2638 89.526 18.2638C91.9722 18.2638 93.6476 20.2464 93.6476 22.7367C93.6476 25.2932 91.7956 26.989 89.526 26.989ZM98.9677 14.9807C99.5177 14.9807 99.9369 14.5394 99.9369 14.0114C99.9369 13.4597 99.5177 13.0642 98.9677 13.0642C98.416 13.0642 97.9967 13.4597 97.9967 14.0114C97.9967 14.5394 98.416 14.9807 98.9677 14.9807ZM98.3498 27.9804H99.5177V17.2944H98.3498V27.9804ZM105.989 28.0907C107.112 28.0907 107.927 27.7173 108.435 27.4083L108.126 26.3507C107.686 26.6376 106.958 26.967 106.121 26.967C104.821 26.967 104.556 26.1301 104.556 24.6532V18.3299H108.457V17.2944H104.556V13.3935L103.388 13.5259V17.2944H101.979V18.3299H103.388V24.9622C103.388 26.9228 104.028 28.0907 105.989 28.0907ZM116.795 28.179C119.791 28.179 121.973 25.9535 121.973 22.6264C121.973 19.3654 119.791 17.0517 116.883 17.0517C115.561 17.0517 114.437 17.5151 113.622 18.4403H113.6V11.7639H110.713V27.9804H113.446V26.6801L113.49 26.6597C114.261 27.6511 115.34 28.179 116.795 28.179ZM116.288 25.5784C114.702 25.5784 113.468 24.4122 113.468 22.6484C113.468 20.9085 114.614 19.6302 116.265 19.6302C117.809 19.6302 119.043 20.7981 119.043 22.6484C119.043 24.368 117.897 25.5784 116.288 25.5784ZM124.38 27.9804H127.267V11.7639H124.38V27.9804ZM134.791 28.179C136.201 28.179 137.281 27.651 138.029 26.6801L138.074 26.7021V27.9804H140.829V17.2062H137.941V18.4403L137.897 18.4623C137.126 17.5372 135.981 17.0517 134.724 17.0517C131.839 17.0517 129.656 19.3654 129.656 22.6264C129.656 25.9535 131.839 28.179 134.791 28.179ZM135.341 25.5784C133.711 25.5784 132.587 24.368 132.587 22.6484C132.587 20.7981 133.777 19.6302 135.341 19.6302C136.884 19.6302 138.074 20.9085 138.074 22.6484C138.074 24.4122 136.817 25.5784 135.341 25.5784ZM148.53 28.179C150.82 28.179 152.297 27.3642 153.222 26.2183L151.35 24.4122C150.778 25.1167 149.917 25.5784 148.816 25.5784C147.098 25.5784 145.908 24.3901 145.908 22.6043C145.908 20.8423 147.076 19.6302 148.816 19.6302C149.829 19.6302 150.712 20.0699 151.284 20.7761L153.178 18.9903C152.054 17.6679 150.292 17.0517 148.617 17.0517C145.29 17.0517 142.976 19.2992 142.976 22.6264C142.976 25.9315 145.312 28.179 148.53 28.179ZM155.214 27.9804H158.077V25.0505L159.532 23.4633L162.199 27.9804H165.438L161.581 21.5247L165.349 17.2062H161.956L158.121 21.7233H158.077V11.7639H155.214V27.9804Z" fill="#262626"/>
</svg>
