<svg width="81" height="88" viewBox="0 0 81 88" fill="none" xmlns="http://www.w3.org/2000/svg">
<path d="M3.79451 87.936C5.15535 87.936 6.21203 87.3923 6.86846 86.6405L6.2922 86.0966C5.74777 86.7365 4.81912 87.1363 3.85853 87.1363C2.08141 87.1363 0.864632 85.8567 0.864632 83.9693C0.864632 82.114 2.06537 80.8025 3.85853 80.8025C4.88326 80.8025 5.73173 81.2343 6.2441 81.8581L6.85255 81.3143C6.10004 80.4505 4.94728 80.0187 3.82646 80.0187C1.56904 80.0187 0 81.6502 0 83.9854C0 86.3046 1.55301 87.936 3.79451 87.936ZM8.67395 87.8561H9.52255V84.0493C9.52255 82.21 10.5311 80.9304 12.1162 80.9304C12.2603 80.9304 12.4364 80.9464 12.6125 80.9624V80.0187H12.1962C10.9955 80.0187 10.0669 80.6744 9.55449 81.7461H9.52255V80.0986H8.67395V87.8561ZM20.4959 83.7775C20.4959 81.6182 19.0869 80.0187 17.0055 80.0187C14.8602 80.0187 13.2431 81.6661 13.2431 83.9693C13.2431 86.2886 14.8281 87.936 17.0696 87.936C18.5266 87.936 19.5353 87.3602 20.1917 86.4806L19.5832 85.9687C19.0389 86.6724 18.2064 87.1363 17.0857 87.1363C15.3885 87.1363 14.1877 85.9367 14.1077 84.1613H20.4798C20.4959 84.1134 20.4959 83.9534 20.4959 83.7775ZM17.0055 80.8025C18.5105 80.8025 19.4872 81.8741 19.6473 83.4576H14.1396C14.3478 81.8581 15.5166 80.8025 17.0055 80.8025ZM25.7472 87.936C27.1721 87.936 28.2768 87.1843 28.8052 86.0807H28.8373V87.8561H29.6538V76.084H28.8212V81.8741H28.7892C28.2128 80.7065 27.06 80.0187 25.7472 80.0187C23.4897 80.0187 21.9207 81.7781 21.9207 84.0334C21.9207 86.3846 23.6178 87.936 25.7472 87.936ZM25.8433 87.1363C24.002 87.1363 22.7852 85.7767 22.7852 84.0493C22.7852 82.082 24.1462 80.8025 25.8433 80.8025C27.6204 80.8025 28.8373 82.2419 28.8373 84.0493C28.8373 85.9048 27.4923 87.1363 25.8433 87.1363ZM32.7025 78.4193C33.1027 78.4193 33.407 78.0994 33.407 77.7154C33.407 77.3156 33.1027 77.0277 32.7025 77.0277C32.3022 77.0277 31.9981 77.3156 31.9981 77.7154C31.9981 78.0994 32.3022 78.4193 32.7025 78.4193ZM32.2542 87.8561H33.1027V80.0986H32.2542V87.8561ZM37.8048 87.936C38.6213 87.936 39.2137 87.6641 39.5819 87.4402L39.3578 86.6724C39.0376 86.8804 38.5092 87.1203 37.9007 87.1203C36.9562 87.1203 36.764 86.5125 36.764 85.4408V80.8504H39.5979V80.0986H36.764V77.2676L35.9155 77.3636V80.0986H34.8908V80.8504H35.9155V85.6649C35.9155 87.0883 36.3798 87.936 37.8048 87.936ZM45.6563 88C47.8336 88 49.4187 86.3846 49.4187 83.9693C49.4187 81.6022 47.8336 79.9228 45.7203 79.9228C44.7597 79.9228 43.9432 80.2587 43.3508 80.9304H43.3347V76.084H41.2374V87.8561H43.2227V86.9123L43.2547 86.8964C43.815 87.6162 44.5996 88 45.6563 88ZM45.288 86.1126C44.1352 86.1126 43.2386 85.265 43.2386 83.9854C43.2386 82.7219 44.0712 81.7941 45.2721 81.7941C46.3928 81.7941 47.2893 82.6418 47.2893 83.9854C47.2893 85.233 46.4568 86.1126 45.288 86.1126ZM51.168 87.8561H53.2654V76.084H51.168V87.8561ZM58.732 88C59.7567 88 60.5411 87.6162 61.0856 86.9123L61.1175 86.9284V87.8561H63.1189V80.0347H61.0215V80.9304L60.9895 80.9464C60.4292 80.2746 59.5966 79.9228 58.684 79.9228C56.5865 79.9228 55.0016 81.6022 55.0016 83.9693C55.0016 86.3846 56.5865 88 58.732 88ZM59.1322 86.1126C57.9475 86.1126 57.131 85.233 57.131 83.9854C57.131 82.6418 57.9955 81.7941 59.1322 81.7941C60.253 81.7941 61.1175 82.7219 61.1175 83.9854C61.1175 85.265 60.2049 86.1126 59.1322 86.1126ZM68.7148 88C70.38 88 71.4527 87.4082 72.125 86.5766L70.7642 85.265C70.3479 85.7767 69.7235 86.1126 68.9229 86.1126C67.6741 86.1126 66.8096 85.249 66.8096 83.9534C66.8096 82.6738 67.6581 81.7941 68.9229 81.7941C69.6594 81.7941 70.2999 82.114 70.7161 82.6259L72.0931 81.3302C71.2765 80.3706 69.9956 79.9228 68.7788 79.9228C66.3612 79.9228 64.6802 81.5542 64.6802 83.9693C64.6802 86.3686 66.3772 88 68.7148 88ZM73.5711 87.8561H75.6525V85.7288L76.7092 84.5772L78.6465 87.8561H81L78.1982 83.1696L80.936 80.0347H78.4704L75.6846 83.3136H75.6525V76.084H73.5711V87.8561Z" fill="white"/>
<path d="M52.8594 56.1783C57.0585 56.1783 60.4625 52.7777 60.4625 48.5828C60.4625 44.3879 57.0585 40.9873 52.8594 40.9873C48.6604 40.9873 45.2563 44.3879 45.2563 48.5828C45.2563 52.7777 48.6604 56.1783 52.8594 56.1783Z" fill="#7845CE"/>
<path fill-rule="evenodd" clip-rule="evenodd" d="M39.3132 64.7769C57.2187 64.7769 71.7339 50.2761 71.7339 32.3884C71.7339 14.5008 57.2187 0 39.3132 0C21.4078 0 6.89258 14.5008 6.89258 32.3884C6.89258 50.2761 21.4078 64.7769 39.3132 64.7769ZM39.3132 56.4457C26.0135 56.4457 15.232 45.6749 15.232 32.3884C15.232 19.102 26.0135 8.33118 39.3132 8.33118C52.6129 8.33118 63.3945 19.102 63.3945 32.3884C63.3945 36.2473 62.485 39.8939 60.8686 43.1261C61.9313 44.6799 62.5528 46.5588 62.5528 48.5827C62.5528 53.9309 58.2129 58.2664 52.8594 58.2664C50.2121 58.2664 47.8127 57.2064 46.0634 55.4878C43.9216 56.1114 41.6565 56.4457 39.3132 56.4457Z" fill="white"/>
</svg>
