<svg width="24" height="24" viewBox="0 0 24 24" fill="none" xmlns="http://www.w3.org/2000/svg">
<mask id="mask0_1_490" style="mask-type:alpha" maskUnits="userSpaceOnUse" x="0" y="0" width="24" height="24">
<rect width="24" height="24" transform="matrix(1 0 0 -1 0 24)" fill="#D9D9D9"/>
</mask>
<g mask="url(#mask0_1_490)">
<path d="M5.3 3.5C4.8 3.5 4.375 3.675 4.025 4.025C3.675 4.375 3.5 4.8 3.5 5.3V14.7C3.5 15.2 3.675 15.625 4.025 15.975C4.375 16.325 4.8 16.5 5.3 16.5H8.875V15H5.3C5.23333 15 5.16667 14.9667 5.1 14.9C5.03333 14.8333 5 14.7667 5 14.7V5.3C5 5.23333 5.03333 5.16667 5.1 5.1C5.16667 5.03333 5.23333 5 5.3 5H18.7C18.7667 5 18.8333 5.03333 18.9 5.1C18.9667 5.16667 19 5.23333 19 5.3V14.7C19 14.7667 18.9667 14.8333 18.9 14.9C18.8333 14.9667 18.7667 15 18.7 15H15.125V16.5H18.7C19.2 16.5 19.625 16.325 19.975 15.975C20.325 15.625 20.5 15.2 20.5 14.7V5.3C20.5 4.8 20.325 4.375 19.975 4.025C19.625 3.675 19.2 3.5 18.7 3.5H5.3ZM12 8.35L8.35 12L9.4 13.05L11.25 11.225V23.25H12.75V11.225L14.6 13.05L15.65 12L12 8.35Z" fill="#828282"/>
</g>
</svg>
