<svg width="24" height="24" viewBox="0 0 24 24" xmlns="http://www.w3.org/2000/svg">
<path d="M17.4688 6.53125C18.9896 8.03125 19.75 9.85417 19.75 12C19.75 14.1458 18.9896 15.9792 17.4688 17.5C15.9688 19 14.1458 19.75 12 19.75C9.85417 19.75 8.02083 19 6.5 17.5C5 15.9792 4.25 14.1458 4.25 12C4.25 9.85417 5 8.03125 6.5 6.53125C8.02083 5.01042 9.85417 4.25 12 4.25C14.1458 4.25 15.9688 5.01042 17.4688 6.53125ZM11.0938 16.0938L16.8438 10.3438C17.0938 10.1146 17.0938 9.88542 16.8438 9.65625L16.1562 8.9375C15.9062 8.70833 15.6667 8.70833 15.4375 8.9375L10.75 13.625L8.5625 11.4375C8.33333 11.2083 8.09375 11.2083 7.84375 11.4375L7.15625 12.1562C6.90625 12.3854 6.90625 12.6146 7.15625 12.8438L10.4062 16.0938C10.6354 16.3438 10.8646 16.3438 11.0938 16.0938Z" fill="#27AE60"/>
</svg>
