<svg width="25" height="24" viewBox="0 0 25 24" fill="none" xmlns="http://www.w3.org/2000/svg">
<path d="M19.2739 20.0722C17.1574 21.7817 14.4915 22.5957 11.7848 22.3311C9.64795 22.1276 7.65356 21.2932 6.04585 19.9297H8.67111V18.3017H3.37988V23.5929H5.00795V21.1711C6.85988 22.7381 9.15953 23.715 11.6423 23.9388C12.029 23.9795 12.3953 23.9999 12.7616 23.9999C15.509 23.9999 18.1546 23.0638 20.2914 21.3136C24.1785 18.1796 25.7048 13.0715 24.1785 8.30939L22.6318 8.79781C23.9342 12.9494 22.6318 17.3655 19.2739 20.0722Z"/>
<path d="M20.6776 2.99844C16.3632 -0.807169 9.78989 -1.07173 5.1906 2.67283C1.32394 5.80686 -0.202378 10.8742 1.28323 15.616L2.8299 15.1276C1.5478 11.037 2.8706 6.64124 6.20814 3.95493C10.2173 0.698794 15.9359 0.943004 19.6601 4.28054H17.0144V5.90861H22.3057V0.617391H20.6776V2.99844Z"/>
</svg>
