<svg width="26" height="24" viewBox="0 0 26 24" fill="none" xmlns="http://www.w3.org/2000/svg">
<path d="M19.5312 20.0721C17.4147 21.7816 14.7488 22.5956 12.0421 22.3311C9.90527 22.1276 7.91089 21.2932 6.30317 19.9297H8.92843V18.3016H3.63721V23.5928H5.26528V21.1711C7.1172 22.7381 9.41685 23.7149 11.8997 23.9388C12.2863 23.9795 12.6526 23.9998 13.019 23.9998C15.7663 23.9998 18.4119 23.0637 20.5488 21.3135C24.4358 18.1795 25.9621 13.0714 24.4358 8.30933L22.8891 8.79775C24.1916 12.9493 22.8891 17.3655 19.5312 20.0721Z" fill="#828282"/>
<path d="M20.9349 2.99844C16.6205 -0.807169 10.0472 -1.07173 5.44792 2.67283C1.58126 5.80686 0.0549461 10.8742 1.54056 15.616L3.08722 15.1276C1.80512 11.037 3.12792 6.64124 6.46547 3.95493C10.4746 0.698794 16.1932 0.943004 19.9174 4.28054H17.2718V5.90861H22.563V0.617391H20.9349V2.99844Z" fill="#828282"/>
</svg>
