<svg width="26" height="24" viewBox="0 0 26 24" xmlns="http://www.w3.org/2000/svg">
<path fill-rule="evenodd" clip-rule="evenodd" d="M23.256 13.0771H24.5259C25.1857 13.0771 25.723 13.626 25.723 14.2997V18.1237C25.723 18.7974 25.1857 19.3464 24.5259 19.3464H23.256V20.7303C23.256 22.53 21.817 24 20.0553 24H3.72318C1.96146 24 0.522461 22.53 0.522461 20.7303V6.82677C0.522461 5.02707 1.96146 3.55706 3.72318 3.55706H12.4616L15.942 0.176934C16.1932 -0.0676 16.5911 -0.0573071 16.8305 0.199392L19.9552 3.55706H20.0553C21.817 3.55706 23.256 5.02707 23.256 6.82677V9.14392V13.0771ZM9.19561 8.49965C11.5811 6.1825 13.9666 3.86567 16.3524 1.54883L19.5501 4.98478L15.964 8.46753L9.19561 8.49965ZM21.5261 18.0585V14.3637H24.463V18.0585H21.5261ZM20.2658 18.0585V14.3637H18.7285V18.0585H20.2658ZM20.8958 13.0772H18.6654C18.0077 13.0772 17.4685 13.6274 17.4685 14.2999V18.1238C17.4685 18.7954 18.0068 19.3465 18.6654 19.3465H21.9959V20.7304C21.9959 21.8196 21.1211 22.7129 20.0549 22.7129H3.72278C2.65659 22.7129 1.78184 21.8196 1.78184 20.7304V6.82693C1.78184 5.73775 2.65659 4.84414 3.72278 4.84414H11.1361L7.37111 8.50061H5.38619C4.55754 8.50061 4.55754 9.78785 5.38619 9.78785H21.9959V13.0772H20.8958ZM21.9959 8.49944H17.755L20.8717 5.47239C20.97 5.37664 21.0314 5.25624 21.0552 5.1293C21.6344 5.48861 21.9959 6.12927 21.9959 6.82575V8.49944Z" stroke="25"/>
</svg>
